# xmcd
#
# Track frame offsets: 
#        150
#        21123
#        38915
#        54228
#        73600
#        90545
#        112783
#        136145
#        154058
#        173525
#        194173
#        218783
#        243373
#        266015
#        290635
#        311943
#
# Disc length: 4495 seconds
#
# Revision: 2
# Processed by: cddbd v1.5.1PL0 Copyright (c) Steve Scherf et al.
# Submitted via: ExactAudioCopy v0.95a3
#
DISCID=e2118d10
DTITLE=Sandra De S - Melhor De Sandra De S 
DYEAR=1900
DGENRE=
TTITLE0=Joga Fora
TTITLE1=Retratos e Can  es
TTITLE2=Usa e Abusa
TTITLE3=Solid o
TTITLE4=frica
TTITLE5=Nda Pr  Depois
TTITLE6=Entre N s
TTITLE7=Mora No Cora  o
TTITLE8=N o V 
TTITLE9=Bye Bye tristeza
TTITLE10=Cart o Vermelho
TTITLE11=Amanh 
TTITLE12=Ninguem Tem Culpa
TTITLE13=Alma G mea
TTITLE14=Calibre Grosso
TTITLE15=Meu Erro
EXTD=
EXTT0=
EXTT1=
EXTT2=
EXTT3=
EXTT4=
EXTT5=
EXTT6=Participa  o especial de Michael Sillivan\n
EXTT7=
EXTT8=
EXTT9=
EXTT10=
EXTT11=Participa  o especial Billy Paul\n
EXTT12=
EXTT13=
EXTT14=
EXTT15=
PLAYORDER=
